<?xml version="1.0" encoding="UTF-8"?>
<svg width="86px" height="92px" viewBox="0 0 86 92" version="1.1" xmlns="http://www.w3.org/2000/svg" xmlns:xlink="http://www.w3.org/1999/xlink">
    <!-- Generator: Sketch 56.3 (81716) - https://sketch.com -->
    <title>Group</title>
    <desc>Created with Sketch.</desc>
    <defs>
        <linearGradient x1="65.1442416%" y1="71.7284164%" x2="38.564777%" y2="34.3655473%" id="linearGradient-1">
            <stop stop-color="#FFD43B" offset="0%"></stop>
            <stop stop-color="#FFE873" offset="100%"></stop>
        </linearGradient>
        <linearGradient x1="-3.26612863%" y1="3.84616971%" x2="71.3197234%" y2="67.9629715%" id="linearGradient-2">
            <stop stop-color="#5A9FD4" offset="0%"></stop>
            <stop stop-color="#306998" offset="100%"></stop>
        </linearGradient>
        <linearGradient x1="-3.26612863%" y1="3.84616971%" x2="71.3197234%" y2="67.9629715%" id="linearGradient-3">
            <stop stop-color="#00D874" offset="0%"></stop>
            <stop stop-color="#00D874" offset="100%"></stop>
        </linearGradient>
        <linearGradient x1="50%" y1="0%" x2="50%" y2="100%" id="linearGradient-4">
            <stop stop-color="#FFFFFF" stop-opacity="0.5" offset="0%"></stop>
            <stop stop-color="#000000" stop-opacity="0.5" offset="100%"></stop>
        </linearGradient>
        <text id="text-5" font-family="Artifika-Regular, Artifika" font-size="48" font-weight="normal">
            <tspan x="10" y="68.4769467">EC</tspan>
        </text>
        <filter x="-12.5%" y="-7.6%" width="125.0%" height="130.5%" filterUnits="objectBoundingBox" id="filter-6">
            <feOffset dx="0" dy="5" in="SourceAlpha" result="shadowOffsetOuter1"></feOffset>
            <feGaussianBlur stdDeviation="2" in="shadowOffsetOuter1" result="shadowBlurOuter1"></feGaussianBlur>
            <feColorMatrix values="0 0 0 0 0.00812403118   0 0 0 0 0.0645773445   0 0 0 0 0.141785553  0 0 0 1 0" type="matrix" in="shadowBlurOuter1"></feColorMatrix>
        </filter>
    </defs>
    <g id="Page-1" stroke="none" stroke-width="1" fill="none" fill-rule="evenodd">
        <g id="Group" transform="translate(0.000000, 0.523053)">
            <path d="M66.7434366,0.000778058973 L66.7434366,8.53297276 C66.7434366,15.146474 61.0487969,20.713486 54.5562125,20.713486 L35.0697687,20.713486 C29.732229,20.713486 25.3158811,25.213001 25.3158811,30.477348 L25.3158811,48.7734048 C25.3158811,53.9793974 29.9123592,57.0426155 35.0697687,58.5357107 C41.2447553,60.3229122 47.1669277,60.6465847 54.5562125,58.5357107 C59.4671281,57.1344265 64.3101,54.3162969 64.3101,48.7734048 L64.3101,41.4503137 L44.8244462,41.4503137 L44.8244462,39.0087647 L74.0655676,39.0087647 C79.7349258,39.0087647 81.8490845,35.1145795 83.8210352,29.2682444 C85.8577695,23.2499582 85.7700746,17.4619775 83.8210352,9.7420764 C82.4194965,4.18284504 79.7436163,0 74.0655676,0 L66.7434366,0 L66.7434366,0.000778058973 Z M55.7831513,46.3318557 C57.8064549,46.3318557 59.4442168,47.9634454 59.4442168,49.9825084 C59.4442168,52.0070179 57.8056649,53.6541687 55.7831513,53.6541687 C53.7685383,53.6541687 52.1228759,52.0070179 52.1228759,49.9825084 C52.1228759,47.9634454 53.7685383,46.3318557 55.7831513,46.3318557 Z" id="Shape" fill="url(#linearGradient-1)" fill-rule="nonzero" transform="translate(55.315881, 30.000000) rotate(270.000000) translate(-55.315881, -30.000000) "></path>
            <path d="M40.0408235,13.4775703 C36.698461,13.4932507 33.5080961,13.7747133 30.6993083,14.267077 C22.4265257,15.7143754 20.92555,18.7438233 20.92555,24.331524 L20.92555,31.7099231 L40.4738582,31.7099231 L40.4738582,34.1693895 L13.5885023,34.1693895 C7.90759438,34.1693895 2.93284168,37.5508618 1.37645024,43.9860866 C-0.419020653,51.3597816 -0.498186036,55.9619709 1.37645024,63.6618177 C2.76580272,69.3937778 6.0844156,73.4769467 11.7661152,73.4769467 L18.4880479,73.4769467 L18.4880479,64.6316487 C18.4880479,58.241113 24.0699991,52.6048032 30.7000999,52.6048032 L50.2262418,52.6048032 C55.661737,52.6048032 60,48.171962 60,42.7669376 L60,24.332308 C60,19.0848714 55.5303225,15.1436098 50.2262418,14.267861 C46.8664629,13.7143439 43.3823944,13.4626739 40.0408235,13.4775703 Z M29.4690782,19.4118072 C31.4877955,19.4118072 33.1376021,21.0715746 33.1376021,23.113159 C33.1376021,25.1461193 31.4885871,26.7902063 29.4690782,26.7902063 C27.4424444,26.7902063 25.8013457,25.1461193 25.8013457,23.113159 C25.8005543,21.0715746 27.4424444,19.4118072 29.4690782,19.4118072 Z" id="Shape" fill="url(#linearGradient-2)" fill-rule="nonzero"></path>
            <path d="M58.0408235,31.4775703 C54.698461,31.4932507 51.5080961,31.7747133 48.6993083,32.267077 C40.4265257,33.7143754 38.92555,36.7438233 38.92555,42.331524 L38.92555,49.7099231 L58.4738582,49.7099231 L58.4738582,52.1693895 L31.5885023,52.1693895 C25.9075944,52.1693895 20.9328417,55.5508618 19.3764502,61.9860866 C17.5809793,69.3597816 17.501814,73.9619709 19.3764502,81.6618177 C20.7658027,87.3937778 24.0844156,91.4769467 29.7661152,91.4769467 L36.4880479,91.4769467 L36.4880479,82.6316487 C36.4880479,76.241113 42.0699991,70.6048032 48.7000999,70.6048032 L68.2262418,70.6048032 C73.661737,70.6048032 78,66.171962 78,60.7669376 L78,42.332308 C78,37.0848714 73.5303225,33.1436098 68.2262418,32.267861 C64.8664629,31.7143439 61.3823944,31.4626739 58.0408235,31.4775703 Z M47.4690782,37.4118072 C49.4877955,37.4118072 51.1376021,39.0715746 51.1376021,41.113159 C51.1376021,43.1461193 49.4885871,44.7902063 47.4690782,44.7902063 C45.4424444,44.7902063 43.8013457,43.1461193 43.8013457,41.113159 C43.8005543,39.0715746 45.4424444,37.4118072 47.4690782,37.4118072 Z" id="Shape-Copy" fill="url(#linearGradient-3)" fill-rule="nonzero" transform="translate(48.000000, 61.476947) scale(-1, -1) translate(-48.000000, -61.476947) "></path>
            <g id="EC">
                <use fill="#D8D8D8" fill-opacity="1" filter="url(#filter-6)" xlink:href="#text-5"></use>
                <use fill="url(#linearGradient-4)" fill-rule="evenodd" xlink:href="#text-5"></use>
                <use fill="#D8D8D8" fill-opacity="1" xlink:href="#text-5"></use>
            </g>
        </g>
    </g>
</svg>